# xmcd
#
# Track frame offsets: 
#        150
#        18773
#        37746
#        53580
#        74543
#        95358
#        116729
#        139814
#        159784
#        181936
#        200905
#        222802
#        245438
#        257613
#        277138
#
# Disc length: 3948 seconds
#
# Revision: 0
# Processed by: cddbd v1.5.2PL0 Copyright (c) Steve Scherf et al.
# Submitted via: ExactAudioCopy v0.95a5
#
DISCID=d00f6a0f
DTITLE=Various Artist - 2009惊艳网络CD1
DYEAR=2009
DGENRE=
TTITLE0=我把爱情想得太完美
TTITLE1=错过的情人
TTITLE2=情书
TTITLE3=女人如烟
TTITLE4=我要去西藏
TTITLE5=泣的玫瑰
TTITLE6=画心
TTITLE7=我多想抱着你
TTITLE8=得到你的人却得不到你的心
TTITLE9=原谅我一次
TTITLE10=姑娘我爱你
TTITLE11=地球人都知道我爱你
TTITLE12=最后一次的温柔
TTITLE13=在我心里从此永远有过你
TTITLE14=不是因为寂寞才想你
EXTD=
EXTT0=
EXTT1=
EXTT2=
EXTT3=
EXTT4=
EXTT5=
EXTT6=
EXTT7=
EXTT8=
EXTT9=
EXTT10=
EXTT11=
EXTT12=
EXTT13=
EXTT14=
PLAYORDER=
